<?xml version="1.0" encoding="UTF-8" standalone="no"?>
<!-- Created with Inkscape (http://www.inkscape.org/) -->

<svg
   width="151.35907mm"
   height="151.35905mm"
   viewBox="0 0 151.35907 151.35905"
   version="1.1"
   id="svg1"
   xml:space="preserve"
   xmlns="http://www.w3.org/2000/svg"
   xmlns:svg="http://www.w3.org/2000/svg"><defs
     id="defs1" /><g
     id="layer1"
     transform="translate(-22.433577,-54.327095)"><g
       id="g5"><path
         id="rect1"
         style="fill:#32b4ff;stroke-width:0.264583"
         d="M 22.433577,54.327095 H 173.79265 V 205.68616 H 22.433577 Z" /><path
         style="fill:#ffffff;fill-opacity:1;stroke:none;stroke-width:3.96873;stroke-linecap:square;stroke-linejoin:miter;stroke-dasharray:none;stroke-opacity:1"
         d="m 144.5102,124.91211 v 38.05488 c -10.63043,17.49958 -30.32878,25.43006 -50.672748,25.43006 H 51.71601 v -86.57038 c 20.905497,-19.10786 46.529908,-32.291687 74.38717,-29.938933 3.60408,22.296012 7.32678,34.432393 18.40702,53.024373 z"
         id="path2" /><path
         id="path1"
         style="color:#000000;fill:#32b4ff;stroke-linecap:round;-inkscape-stroke:none"
         d="m -8.4576226,134.42429 c -4.4214974,-4.42149 -10.5215324,-7.16454 -17.2359094,-7.16454 -13.428752,0 -24.400455,10.9717 -24.400455,24.40045 0,12.07784 8.877146,22.16298 20.43286,24.07086 l -0.0015,27.00727 a 3.96875,3.96875 0 0 0 3.969057,3.96906 3.96875,3.96875 0 0 0 3.969423,-3.96942 l -0.0011,-27.00691 c 11.555524,-1.90805 20.4321294,-11.99315 20.4321294,-24.07086 0,-6.71438 -2.7430486,-12.81441 -7.164546,-17.23591 z m -5.5772154,5.57722 c 2.973341,2.97334 4.8043785,7.08918 4.8043785,11.65869 0,9.13901 -7.3236895,16.46271 -16.4627065,16.46271 -9.139018,0 -16.463072,-7.32406 -16.463072,-16.46307 0,-9.13902 7.323689,-16.46271 16.462706,-16.46271 4.569509,0 8.685353,1.83104 11.658694,4.80438 z"
         transform="rotate(-45)" /></g></g></svg>
